PathFileType	4	(X/Y/Z)	C:/Users/beibeiliu/ov580/test_trc/User2\sequence.18_training_dense_left.trc
DataRate	CameraRate	NumFrames	NumMarkers	Units	OrigDataRate	OrigDataStartFrame	OrigNumFrames
120	120	16	19	mm	120	108	429
Frame#	Time	ThumbCMC			ThumbMCP			ThumbIP			ThumbTip			IndexMCP			IndexPIP			IndexTip			MiddleMCP			MiddlePIP			MiddleTip			RingMCP			RingPIP			RingTip			PinkyMCP			PinkyPIP			PinkyTip			BackHand1			BackHand2			BackHand3	
		X0	Y0	Z0	X1	Y1	Z1	X2	Y2	Z2	X3	Y3	Z3	X4	Y4	Z4	X5	Y5	Z5	X6	Y6	Z6	X7	Y7	Z7	X8	Y8	Z8	X9	Y9	Z9	X10	Y10	Z10	X11	Y11	Z11	X12	Y12	Z12	X13	Y13	Z13	X14	Y14	Z14	X15	Y15	Z15	X16	Y16	Z16	X17	Y17	Z17	X18	Y18	Z18	
107	0.891667	-175.3	25.9046	51.4589	-143.749	43.3393	38.7272	-112.183	45.628	31.4356	-84.6818	34.0002	27.8637	-112.077	13.8305	-2.45728	-86.2051	24.8366	13.1865	-114.934	25.5347	36.2633	-93.6107	-4.48124	8.53502	-74.7621	14.4773	30.8807	-101.108	17.2069	56.9623	-90.0492	-22.7602	23.323	-69.9463	-6.90913	40.2929	-100.192	5.38338	60.9469	-95.5661	-38.4602	38.897	-73.8877	-18.1355	49.6855	-94.484	-3.20337	71.1363	-149.409	-40.9883	40.3172	-181	-41.7082	58.0361	-176.984	-10.6116	30.3498	
108	0.9	-178.578	26.1955	48.8701	-150.142	43.3541	36.3949	-116.272	47.8905	26.3734	-91.4257	36.0419	27.5837	-115.058	15.7254	-6.25174	-88.6931	28.3825	6.55943	-117.553	31.9808	31.3511	-95.8824	0.629181	3.97678	-76.0311	19.0126	28.133	-104.573	23.0334	53.4828	-87.4653	-18.1304	20.4768	-70.7751	-1.27107	37.0761	-100.899	7.27319	59.1207	-94.0985	-34.5507	38.411	-72.6512	-11.7556	50.7538	-92.9219	2.62092	68.6604	-149.805	-37.4476	38.1665	-178.729	-41.3113	54.727	-174.461	-10.351	31.2954	
109	0.908333	-179.254	24.2447	45.3645	-156.907	47.5255	29.4559	-122.335	46.919	22.427	-97.0353	29.5294	24.7659	-116.454	15.3225	-9.25155	-92.9855	29.8387	-2.63349	-113.536	33.9572	26.3507	-101.83	0.550603	2.71886	-76.3591	22.3524	21.2992	-100.257	23.2295	51.1802	-90.7929	-15.5236	17.0547	-73.7465	5.06488	34.3782	-97.7815	9.93667	56.9814	-92.4335	-32.5307	35.7474	-74.9812	-5.92332	44.5895	-93.2809	4.83488	69.1474	-150.429	-37.8846	40.577	-179.801	-42.2141	55.5303	-178.96	-11.1989	30.9671	
110	0.916667	-186.15	24.5397	45.5148	-160.578	45.501	23.827	-126.879	45.2115	15.6004	-106.427	27.3745	22.7073	-122.651	14.9786	-13.0307	-96.8569	29.3646	-5.04063	-116.198	34.605	22.0332	-102.272	3.84816	-2.32653	-78.4883	23.9483	16.2377	-105.9	28.7595	48.0102	-93.908	-12.6595	12.6585	-74.6201	7.50732	26.5641	-99.2443	13.0519	53.4648	-95.4184	-27.8294	32.5336	-75.6791	-3.90691	39.6387	-93.9328	7.51728	61.4177	-149.055	-38.1031	40.1899	-177.181	-43.7509	57.5288	-180.312	-12.1279	29.6678	
111	0.925	-187.571	22.332	43.1906	-169.319	43.9621	24.7326	-135.672	47.0177	10.3365	-108.936	32.9871	13.9645	-128.508	14.9891	-17.4858	-102.351	30.3335	-14.3906	-123.131	33.4884	16.7694	-106.973	5.34896	-8.23979	-82.8607	25.2773	7.97245	-106.923	30.1326	42.4349	-94.9877	-11.9937	10.0715	-76.1803	9.74157	21.216	-100.806	16.6767	47.2313	-97.0999	-28.6014	31.8967	-74.5649	-2.29904	34.015	-95.958	12.2062	61.1711	-146.777	-34.6008	34.9327	-176.23	-41.5498	56.6035	-180.095	-15.3655	32.0683	
112	0.933333	-192.928	22.0532	41.2735	-171.772	42.384	19.0749	-140.546	46.8585	4.97235	-111.373	35.3033	6.63014	-135.433	13.0426	-21.8354	-110.488	33.9222	-20.6725	-129.563	34.8124	11.4532	-110.855	-0.360149	-9.06552	-89.4726	28.1334	-2.03473	-109.686	33.9366	32.5194	-97.2294	-9.8254	4.55108	-80.7148	13.0425	13.8516	-105.005	20.8603	39.7358	-96.198	-23.4632	25.2701	-80.1045	1.05819	26.6123	-99.9973	13.9562	51.9639	-148.869	-36.6211	38.2261	-173.508	-41.7277	55.9501	-181.279	-17.4427	28.3658	
113	0.941667	-193.632	20.7217	36.2427	-177.47	40.6042	17.2324	-145.398	48.5517	-1.22615	-115.215	38.4485	-2.46218	-140.876	9.63584	-24.8027	-115.825	30.9419	-26.1079	-133.067	35.9519	5.73337	-110.71	-0.293503	-15.3419	-94.9915	27.6385	-8.38299	-121.04	30.2014	27.3705	-100.639	-9.37776	-1.16193	-86.5746	14.6814	5.77396	-110.312	21.7189	36.0827	-99.4093	-23.1536	24.3013	-80.9567	6.00041	24.2573	-102.855	16.5491	48.8241	-150.106	-34.3904	33.0143	-171.977	-44.5986	59.1518	-184.996	-18.4986	29.908	
114	0.95	-196.341	16.7335	39.1679	-176.963	36.9769	12.05	-147.88	44.1991	-6.92689	-122.179	39.8778	-7.99502	-146.986	4.8968	-30.1082	-123.603	27.457	-33.887	-132.872	33.9103	-1.53455	-121.45	-2.36196	-20.722	-100.798	26.2914	-11.1255	-123.248	32.7071	16.2295	-102.475	-12.4022	-5.53499	-90.1251	12.4914	-2.37485	-111.584	24.0895	25.4887	-104.614	-22.2034	20.5774	-86.8779	4.96632	13.5887	-103.165	18.0104	39.6331	-151.124	-35.7847	37.6776	-168.532	-43.5408	58.4066	-185.257	-23.5373	30.7589	
115	0.958333	-196.808	14.368	35.6316	-183.694	34.6253	12.7688	-153.874	42.9919	-12.8783	-128.169	38.168	-17.3439	-154.192	0.312485	-32.6929	-130.794	24.1489	-39.4238	-141.525	34.4978	-9.55726	-124.251	-8.22774	-24.274	-106.247	22.0594	-17.6984	-129.618	28.6911	8.6939	-113.575	-14.9596	-9.10842	-97.15	14.6525	-8.09854	-118.684	21.3724	17.8135	-104.674	-23.2866	13.1648	-88.8939	4.34391	9.01154	-111.218	17.843	31.2829	-151.033	-36.654	34.4077	-172.13	-42.8826	58.1872	-189.72	-21.8901	27.7437	
116	0.966667	-201.806	13.0211	36.9679	-184.918	30.9815	6.37118	-161.798	39.9899	-15.3805	-133.239	32.4917	-22.0493	-158.903	-4.89405	-33.1017	-137.482	14.9474	-43.9593	-149.818	29.5196	-11.8869	-132.445	-14.7094	-26.7283	-115.422	17.6824	-29.2289	-135.991	22.3504	4.70556	-117.594	-19.559	-12.3319	-104.414	9.99609	-16.386	-122.033	18.4331	13.1985	-110.762	-23.6798	8.27192	-94.0476	1.84041	1.01019	-112.183	16.9778	26.2524	-156.703	-38.5646	31.6265	-170.81	-45.6888	60.6848	-193.696	-26.7881	30.9226	
117	0.975	-205.513	12.3311	36.2782	-190.755	30.4573	3.61442	-167.232	35.1613	-17.5286	-140.315	28.7238	-25.953	-164.616	-10.6656	-36.7676	-148.302	13.7092	-45.6269	-159.437	24.0126	-13.034	-142.191	-22.6043	-30.3116	-122.488	5.38367	-36.4109	-139.861	16.7663	-2.84749	-127.447	-23.1997	-18.8118	-113.104	0.642581	-26.1683	-129.401	12.9134	6.55071	-115.932	-29.6042	7.85661	-102.282	-2.83656	-6.18396	-119.716	13.1982	18.5113	-158.066	-40.6368	30.5225	-177.021	-42.4835	63.1222	-193.021	-30.2397	31.9844	
118	0.983333	-204.963	8.10569	35.5441	-192.577	24.9478	2.96716	-168.047	26.5961	-19.5062	-141.4	21.5464	-30.4391	-174.596	-15.5847	-38.4835	-156.135	9.34362	-47.3718	-165.234	19.173	-15.5751	-153.207	-28.9918	-33.6688	-135.121	-2.52883	-45.784	-148.356	11.6652	-9.33271	-130.158	-30.7141	-23.4428	-117.984	-5.68785	-30.2581	-135.04	8.28429	3.13632	-121.977	-34.2854	3.23505	-108.336	-10.6789	-14.0852	-124.467	8.59671	10.2839	-160.862	-45.0688	34.0919	-175.6	-45.5214	64.7083	-200.327	-30.3988	35.5766	
119	0.991667	-207.493	5.27076	35.0994	-197.814	21.3377	0.638919	-171.17	20.5754	-24.1895	-143.756	9.09667	-26.2612	-184.452	-20.9687	-36.4049	-165.365	1.19305	-51.2552	-172.861	14.1879	-16.7337	-159.405	-37.7714	-35.9448	-142.396	-8.04052	-47.5456	-156.621	6.19042	-11.4944	-140.369	-38.6943	-25.628	-129.539	-11.8497	-36.2866	-138.686	2.59381	-4.21703	-129.217	-39.8409	-1.47084	-116.217	-16.2895	-18.9542	-130.743	1.8663	5.64038	-163.968	-49.2536	30.638	-175.058	-47.9068	63.5621	-201.124	-36.0707	38.4499	
120	1	-212.675	6.07521	36.3815	-200.692	18.2277	4.67511	-173.241	14.5924	-21.3613	-149.493	3.73676	-22.6249	-186.461	-26.1168	-39.0395	-169.76	-5.18345	-51.2683	-176.537	11.8288	-19.6209	-165.861	-41.5832	-33.0431	-149.698	-13.7731	-49.5539	-158.075	0.816705	-15.5242	-149.79	-43.4122	-22.9342	-134.928	-21.3306	-39.732	-143.214	-3.09956	-5.23059	-135.413	-43.5745	-5.35736	-125.017	-19.8334	-23.1919	-130.174	-1.50314	-1.23822	-167.27	-49.9824	35.5074	-176.59	-47.3123	65.3998	-205.766	-35.0264	34.6636	
121	1.00833	-213.263	7.81831	35.3397	-201.802	19.3272	3.63412	-175.361	11.5111	-23.03	-147.846	-7.50125	-19.1713	-189.128	-27.7402	-37.4622	-172.585	-8.10094	-51.5638	-177.695	6.18777	-16.113	-169.288	-42.2774	-38.1489	-155.655	-17.7296	-52.3416	-159.27	-1.67385	-14.7894	-149.71	-47.5555	-23.7956	-135.189	-25.0853	-38.9774	-144.163	-7.74318	-7.89761	-137.282	-48.0426	-2.41333	-124.831	-26.9879	-25.04	-130.255	-6.26202	-0.690821	-170.996	-49.5805	31.4543	-179.177	-46.9205	67.1649	-207.615	-35.2213	38.6442	
122	1.01667	-209.163	7.80263	39.8775	-201.138	17.0179	3.1348	-174.501	9.18077	-25.9113	-150.69	-10.7673	-17.4319	-193.615	-27.4347	-39.009	-176.756	-9.18934	-52.5145	-178.648	8.7041	-21.6646	-174.214	-43.4247	-36.888	-157.187	-17.7133	-50.8653	-166.309	-1.8146	-14.6222	-153.705	-49.644	-27.1808	-138.635	-26.3739	-39.8815	-145.541	-11.0475	-8.99218	-139.81	-51.981	-8.40433	-128.921	-29.7146	-26.0443	-136.354	-10.0978	-0.867994	-171.584	-52.2221	30.8442	-182.344	-49.1163	66.3509	-209.925	-31.8626	39.0483	
